<svg width="530" height="476" fill="none" xmlns="http://www.w3.org/2000/svg"><path fill-rule="evenodd" clip-rule="evenodd" d="M527.632 149.736a2.375 2.375 0 0 0 2.368-2.365V97.309a2.376 2.376 0 0 0-1.189-2.047l-60.228-34.739a2.249 2.249 0 0 0-1.169-.329 2.377 2.377 0 0 0-2.368 2.376v50.052a2.356 2.356 0 0 0 1.179 1.996l60.228 34.739c.35.234.758.365 1.179.379Z" fill="url(#a)" fill-opacity=".2"/><path fill-rule="evenodd" clip-rule="evenodd" d="M482.63 222.408a5.072 5.072 0 0 0 5.065-5.061V110.276a5.059 5.059 0 0 0-2.527-4.373L356.349 31.594a5 5 0 0 0-5.086-.054 4.99 4.99 0 0 0-2.497 4.427v107.071a5.057 5.057 0 0 0 2.527 4.372l128.819 74.309a4.987 4.987 0 0 0 2.518.689Z" fill="url(#b)" fill-opacity=".3"/><path fill-rule="evenodd" clip-rule="evenodd" d="M381.171 79.35a2.107 2.107 0 0 0 2.098-2.106V32.882a2.084 2.084 0 0 0-.999-1.807L328.896.29a1.997 1.997 0 0 0-.999-.289 2.098 2.098 0 0 0-2.098 2.096v44.362c0 .75.4 1.442 1.049 1.817l53.284 30.806c.315.183.675.276 1.039.27Z" fill="url(#c)" fill-opacity=".2"/><path fill-rule="evenodd" clip-rule="evenodd" d="M505.664 255.66a2.108 2.108 0 0 0 2.098-2.097v-44.361c0-.75-.4-1.442-1.049-1.817l-53.374-30.786a2.06 2.06 0 0 0-.999-.289 2.106 2.106 0 0 0-2.098 2.096v44.422c-.01.736.37 1.423.999 1.806l53.373 30.736c.318.188.68.288 1.05.29Z" fill="url(#d)" fill-opacity=".1"/><path opacity=".39" d="M249.928 256.776a44.145 44.145 0 0 1 23.034-5.339 42.47 42.47 0 0 1 9.331 1.484 50.453 50.453 0 0 1 9.278 3.907l200.321 115.411c6.877 3.972 9.774 10.249 8.482 16.787a25.096 25.096 0 0 1-1.788 5.053c-1.644 3.907-8.182 9.741-12.724 12.359l-110.104 63.435c-1.148.664-3.484 1.875-4.75 2.409a46.779 46.779 0 0 1-17.344 3.686 35.823 35.823 0 0 1-18.348-4.168L132.712 355.035c-6.93-3.985-9.762-10.327-8.366-16.93a28.317 28.317 0 0 1 1.488-4.362c1.579-4.076 8.431-10.419 13.194-13.101l110.9-63.866Z" fill="#8F92CB" fill-opacity=".2"/><path fill-rule="evenodd" clip-rule="evenodd" d="m344.008 458.705-206.411-119.06c-3.642-2.098-5.45-4.886-5.503-7.82v-10.211c.066-3.571 2.658 2.656 7.777-.318l117.157-67.543c9.411-5.431 23.649-6.015 31.798-1.328l206.411 119.086c2.725 1.58 4.706-5.085 5.41-2.974.226.717.08 10.051.093 10.781.08 3.652-2.552 7.529-7.777 10.543l-117.157 67.543c-9.412 5.417-23.649 6.014-31.798 1.301Z" fill="url(#e)"/><path fill-rule="evenodd" clip-rule="evenodd" d="m344.026 449.733-206.42-119.055c-8.163-4.701-7.139-12.922 2.273-18.34l117.163-67.569c9.412-5.431 23.65-6.016 31.8-1.328l206.421 119.042c8.162 4.702 7.139 12.922-2.274 18.353l-117.163 67.556c-9.412 5.445-23.65 6.042-31.8 1.341Z" fill="url(#f)"/><path fill-rule="evenodd" clip-rule="evenodd" d="m380.691 404.674-167.407-96.722c-3.346-1.927-2.921-5.314.942-7.547l62.848-36.323c3.876-2.233 9.731-2.472 13.076-.532l167.395 96.722c3.358 1.927 2.933 5.315-.93 7.547l-62.847 36.31c-3.93 2.246-9.785 2.485-13.077.545Z" fill="url(#g)"/><path fill-rule="evenodd" clip-rule="evenodd" d="m290.76 278.862-10.74-6.21a1.502 1.502 0 0 1 0-2.833 5.42 5.42 0 0 1 4.931 0l10.74 6.197a1.502 1.502 0 0 1 0 2.846 5.457 5.457 0 0 1-4.931 0Zm12.738 7.368-5.078-2.94v-.013c-1.369-.798-1.382-2.061-.013-2.832a5.457 5.457 0 0 1 4.931 0l5.092 2.939c1.329.798 1.329 2.061 0 2.846a5.465 5.465 0 0 1-4.932 0Zm7.655 4.415 5.091 2.939a5.465 5.465 0 0 0 4.932 0c1.329-.785 1.329-2.061 0-2.859l-5.078-2.939a5.459 5.459 0 0 0-4.932 0 1.502 1.502 0 0 0-.013 2.846v.013Zm17.825 10.24-5.091-2.886v-.013a1.503 1.503 0 0 1 0-2.886 5.422 5.422 0 0 1 4.932 0l5.091 2.939a1.503 1.503 0 0 1 0 2.846 5.465 5.465 0 0 1-4.932 0Zm7.645 4.468 5.091 2.939a5.42 5.42 0 0 0 4.931 0 1.501 1.501 0 0 0 0-2.845l-5.038-2.94a5.463 5.463 0 0 0-4.931 0 1.504 1.504 0 0 0-.053 2.833v.013Zm17.826 10.307-5.091-2.939v-.013c-1.356-.798-1.369-2.075 0-2.833a5.463 5.463 0 0 1 4.931 0l5.091 2.939a1.502 1.502 0 0 1 0 2.846 5.457 5.457 0 0 1-4.931 0Zm7.655 4.415 5.078 2.939a5.457 5.457 0 0 0 4.931 0c1.329-.784 1.329-2.048 0-2.846l-5.091-2.939a5.463 5.463 0 0 0-4.931 0c-1.37.772-1.356 2.035.013 2.833v.013Zm17.814 10.347-5.077-2.939c-1.33-.851-1.33-2.128 0-2.86a5.436 5.436 0 0 1 4.918 0l5.091 2.939c1.329.798 1.329 2.075 0 2.86a5.465 5.465 0 0 1-4.932 0Zm7.654 4.415 5.091 2.939a5.465 5.465 0 0 0 4.932 0c1.329-.785 1.329-2.061 0-2.846l-5.078-2.939a5.42 5.42 0 0 0-4.931 0 1.502 1.502 0 0 0-.014 2.779v.067Zm17.824 10.293-5.091-2.939v-.08a1.502 1.502 0 0 1 0-2.766 5.465 5.465 0 0 1 4.932 0l5.091 2.939a1.503 1.503 0 0 1 0 2.846 5.422 5.422 0 0 1-4.932 0Zm7.643 4.429 5.091 2.939a5.463 5.463 0 0 0 4.931 0 1.502 1.502 0 0 0 0-2.846l-5.091-2.939a5.457 5.457 0 0 0-4.931 0 1.515 1.515 0 0 0 0 2.779v.067Zm17.829 10.293-5.091-2.939v-.067c-1.356-.797-1.369-2.061-.04-2.845a5.459 5.459 0 0 1 4.932 0l5.131 3.005c1.329.798 1.329 2.061 0 2.846a5.459 5.459 0 0 1-4.932 0Zm7.923 4.575 5.078 2.926c1.549.79 3.383.79 4.932 0a1.504 1.504 0 0 0 0-2.846l-5.091-2.939a5.459 5.459 0 0 0-4.932 0c-1.369.718-1.356 1.994.013 2.792v.067ZM272.973 282.16l-4.413-2.553a1.702 1.702 0 0 1-.067-3.178l4.44-2.58a6.242 6.242 0 0 1 5.623 0l4.399 2.54a1.714 1.714 0 0 1 0 3.245l-4.373 2.526a6.213 6.213 0 0 1-5.609 0Zm18.35 7.368 4.373-2.54c1.555-.891 1.542-2.341 0-3.232l-4.4-2.553a6.215 6.215 0 0 0-5.61 0l-4.386 2.526c-1.542.891-1.529 2.341 0 3.232l4.4 2.553a6.218 6.218 0 0 0 5.623.067v-.053Zm7.12 7.341-4.4-2.54v.053c-1.555-.905-1.622-2.354 0-3.298l4.387-2.527a6.176 6.176 0 0 1 5.609 0l4.4 2.54a1.716 1.716 0 0 1 0 3.245l-4.387 2.527a6.22 6.22 0 0 1-5.609 0Zm8.336 4.814 4.4 2.54a6.176 6.176 0 0 0 5.609 0l4.387-2.527c1.542-.891 1.529-2.341 0-3.245l-4.4-2.54a6.176 6.176 0 0 0-5.609 0l-4.374 2.527c-1.581.944-1.568 2.447-.013 3.298v-.053Zm22.705 1.596 4.413 2.54v.053a1.717 1.717 0 0 1 0 3.192l-4.373 2.527a6.205 6.205 0 0 1-5.623 0l-4.4-2.54a1.716 1.716 0 0 1 0-3.245l4.374-2.527a6.176 6.176 0 0 1 5.609 0Zm17.144 9.894-4.413-2.54a6.22 6.22 0 0 0-5.609 0l-4.307 2.58a1.702 1.702 0 0 0 0 3.232l4.413 2.553a6.221 6.221 0 0 0 5.61 0l4.373-2.527a1.715 1.715 0 0 0-.067-3.245v-.053Zm8.339 4.814 4.4 2.554v.053c1.555.891 1.568 2.341 0 3.165l-4.374 2.54a6.22 6.22 0 0 1-5.609 0l-4.413-2.553a1.702 1.702 0 0 1 0-3.232l4.373-2.527a6.248 6.248 0 0 1 5.623 0Zm17.135 9.908-4.4-2.54a6.176 6.176 0 0 0-5.609 0l-4.387 2.527c-1.542.891-1.528 2.34 0 3.244l4.4 2.541a6.182 6.182 0 0 0 5.609 0l4.374-2.527a1.716 1.716 0 0 0 .013-3.192v-.053Zm8.331 4.907 4.4 2.447v.053c1.555.905 1.569 2.354.013 3.285l-4.386 2.527a6.178 6.178 0 0 1-5.61 0l-4.399-2.54c-1.542-.904-1.556-2.354 0-3.245l4.373-2.527a6.176 6.176 0 0 1 5.609 0Zm17.148 9.801-4.413-2.54a6.184 6.184 0 0 0-5.61 0l-4.373 2.527a1.716 1.716 0 0 0 0 3.245l4.4 2.54a6.205 6.205 0 0 0 5.623 0l4.373-2.527a1.714 1.714 0 0 0 0-3.191v-.054Zm2.762 13.126-4.413-2.553v.053a1.702 1.702 0 0 1-.014-3.258l4.374-2.54a6.213 6.213 0 0 1 5.609 0l4.426 2.54a1.702 1.702 0 0 1 0 3.231l-4.373 2.527a6.22 6.22 0 0 1-5.609 0Zm22.704 1.596-4.347-2.5a6.246 6.246 0 0 0-5.622 0l-4.374 2.527a1.716 1.716 0 0 0 0 3.245l4.414 2.54a6.22 6.22 0 0 0 5.609 0l4.373-2.54a1.702 1.702 0 0 0-.053-3.219v-.053Zm8.568 4.961 10.049 5.811.04.053a1.716 1.716 0 0 1-.027 3.192l-4.387 2.527a6.176 6.176 0 0 1-5.609 0l-10.063-5.812a1.716 1.716 0 0 1 0-3.245l4.374-2.526a6.242 6.242 0 0 1 5.623 0ZM256.77 286.482l10.063 5.799a6.182 6.182 0 0 0 5.609 0l4.373-2.527a1.715 1.715 0 0 0 0-3.245l-10.062-5.798a6.178 6.178 0 0 0-5.61 0l-4.373 2.527c-1.568.891-1.568 2.34 0 3.244Zm22.801 13.193-4.413-2.554-.014-.026a1.703 1.703 0 0 1 .014-3.205l4.373-2.527a6.205 6.205 0 0 1 5.623 0l4.4 2.553a1.702 1.702 0 0 1 0 3.232l-4.374 2.527a6.176 6.176 0 0 1-5.609 0Zm12.732 7.354a6.22 6.22 0 0 0 5.609 0l4.374-2.527a1.716 1.716 0 0 0 0-3.245l-4.4-2.553a6.221 6.221 0 0 0-5.61 0l-4.386 2.527c-1.542.891-1.529 2.34 0 3.245l4.413 2.553Zm18.342 7.354a6.176 6.176 0 0 1-5.609 0l-4.4-2.54c-1.529-.904-1.542-2.354 0-3.245l4.386-2.527a6.184 6.184 0 0 1 5.61 0l4.4 2.54c1.528.905 1.542 2.354 0 3.245l-4.387 2.527Zm7.089-.957-4.373 2.527c-1.556.891-1.542 2.34 0 3.245l4.4 2.54a6.182 6.182 0 0 0 5.609 0l4.387-2.527c1.541-.891 1.528-2.341 0-3.245l-4.4-2.54a6.179 6.179 0 0 0-5.676-.027l.053.027Zm8.095 10.067 4.905-2.859v-.027a5.607 5.607 0 0 1 5.078.04l4.945 2.859a1.544 1.544 0 0 1 0 2.926l-4.919 2.846a5.568 5.568 0 0 1-5.064 0l-4.945-2.859c-1.396-.811-1.409-2.115 0-2.926Zm17.636 4.495-4.905 2.832a1.557 1.557 0 0 0 0 2.94l4.945 2.845a5.601 5.601 0 0 0 5.077 0l4.905-2.832a1.556 1.556 0 0 0 0-2.939l-4.945-2.846a5.604 5.604 0 0 0-5.077-.027v.027Zm7.834 10.2 4.918-2.846.013-.026a5.566 5.566 0 0 1 5.051.039l4.945 2.86c1.396.811 1.409 2.114 0 2.925l-4.905 2.833a5.61 5.61 0 0 1-5.078 0l-4.944-2.859a1.544 1.544 0 0 1 0-2.926Zm17.649 4.509-4.918 2.846c-1.396.798-1.329 2.114 0 2.925l4.945 2.86a5.651 5.651 0 0 0 5.077 0l4.919-2.846c1.395-.812 1.329-2.115 0-2.926l-4.945-2.859a5.619 5.619 0 0 0-5.078-.027v.027Zm7.815 10.2 4.919-2.846v.04a5.642 5.642 0 0 1 5.117 0l4.905 2.819c1.33.811 1.396 2.128 0 2.926l-4.918 2.846a5.624 5.624 0 0 1-5.064 0l-4.959-2.86a1.542 1.542 0 0 1 0-2.925Zm22.776 13.112 4.918-2.846a1.542 1.542 0 0 0 0-2.926l-4.945-2.859a5.607 5.607 0 0 0-5.077 0l-4.919 2.833c-1.329.811-1.329 2.114 0 2.926l4.945 2.859a5.57 5.57 0 0 0 5.078.053v-.04Zm17.649 4.522-4.918 2.833v.013a5.528 5.528 0 0 1-5.078-.04l-4.945-2.846a1.556 1.556 0 0 1 0-2.939l4.905-2.833a5.61 5.61 0 0 1 5.078 0l4.958 2.873a1.556 1.556 0 0 1 0 2.939Zm12.987 4.575-4.945-2.859a5.601 5.601 0 0 0-5.077 0l-4.905 2.832a1.544 1.544 0 0 0 0 2.926l4.945 2.859a5.601 5.601 0 0 0 5.077 0l4.905-2.846a1.543 1.543 0 0 0 0-2.899v-.013Zm-169.518-72.745-15.951-9.229a1.544 1.544 0 0 1 .013-2.926l4.919-2.846a5.617 5.617 0 0 1 5.064 0l15.951 9.229a1.544 1.544 0 0 1 0 2.926l-4.918 2.846a5.647 5.647 0 0 1-5.078 0Zm7.837 4.495 4.944 2.859a5.62 5.62 0 0 0 5.065 0l4.918-2.846c1.396-.798 1.329-2.114 0-2.925l-4.945-2.86a5.647 5.647 0 0 0-5.078 0l-4.918 2.846c-1.435.812-1.422 2.115.014 2.926Zm17.682 10.213-4.945-2.859-.026-.026c-1.409-.785-1.423-2.088.013-2.913l4.918-2.832a5.603 5.603 0 0 1 5.078 0l4.945 2.859a1.542 1.542 0 0 1 0 2.926l-4.918 2.845a5.564 5.564 0 0 1-5.065 0Zm7.788 4.509 4.945 2.846a5.565 5.565 0 0 0 5.077 0l4.905-2.833a1.556 1.556 0 0 0 0-2.939l-4.944-2.846a5.61 5.61 0 0 0-5.078 0l-4.905 2.833a1.557 1.557 0 0 0-.027 2.939h.027Zm27.661 7.381-4.905 2.832h-.027a5.606 5.606 0 0 1-5.051.014l-4.945-2.859a1.543 1.543 0 0 1 0-2.926l4.918-2.846a5.57 5.57 0 0 1 5.065 0l4.945 2.859c1.395.811 1.409 2.115 0 2.926Zm7.828 10.2 4.918-2.846c1.33-.811 1.33-2.115 0-2.926l-4.944-2.859a5.62 5.62 0 0 0-5.065 0l-4.918 2.846c-1.396.798-1.329 2.114 0 2.926l4.945 2.859c1.586.79 3.451.79 5.038 0h.026Zm17.654 4.508-4.919 2.846h-.026a5.62 5.62 0 0 1-5.038 0l-4.958-2.859a1.544 1.544 0 0 1 0-2.926l4.918-2.846a5.647 5.647 0 0 1 5.078 0l4.945 2.86c1.329.811 1.395 2.127 0 2.925Zm7.82 10.2 4.919-2.832a1.556 1.556 0 0 0 0-2.939l-4.945-2.859a5.603 5.603 0 0 0-5.078 0l-4.918 2.832c-1.396.811-1.329 2.115 0 2.926l4.945 2.859a5.566 5.566 0 0 0 5.051.013h.026Zm17.653 4.522-4.918 2.833h-.027a5.566 5.566 0 0 1-5.13-.014l-4.945-2.859a1.556 1.556 0 0 1 0-2.939l4.998-2.806a5.607 5.607 0 0 1 5.077 0l4.945 2.846a1.556 1.556 0 0 1 0 2.939Zm7.827 10.187 4.905-2.833a1.542 1.542 0 0 0 0-2.926l-4.945-2.859a5.568 5.568 0 0 0-5.064 0l-4.919 2.846a1.544 1.544 0 0 0 0 2.926l4.945 2.859a5.611 5.611 0 0 0 5.052-.013h.026Zm7.605 7.354-4.945-2.859h.027a1.542 1.542 0 0 1-.014-2.846l4.919-2.846a5.617 5.617 0 0 1 5.064 0l4.945 2.78c1.329.811 1.396 2.114 0 2.925l-4.918 2.846a5.647 5.647 0 0 1-5.078 0Zm30.373 6.078-12.588-7.275a5.57 5.57 0 0 0-5.065 0l-4.918 2.833a1.544 1.544 0 0 0 0 2.926l12.588 7.274a5.564 5.564 0 0 0 5.065 0l4.918-2.832a1.543 1.543 0 0 0 0-2.926Zm-162.77-68.556-22.664-13.086v-.066a1.741 1.741 0 0 1 0-3.245l4.253-2.46a6.348 6.348 0 0 1 5.73 0l22.663 13.086a1.741 1.741 0 0 1 0 3.311l-4.253 2.46a6.31 6.31 0 0 1-5.729 0Zm8.456 4.881 4.281 2.487c1.801.91 3.927.91 5.729 0l4.267-2.46a1.744 1.744 0 0 0 0-3.312l-4.281-2.473a6.346 6.346 0 0 0-5.729 0l-4.267 2.473c-1.595.825-1.595 2.301 0 3.219v.066Zm17.013 9.841-4.28-2.473v-.067a1.742 1.742 0 0 1 0-3.258l4.267-2.46a6.346 6.346 0 0 1 5.729 0l4.28 2.486c1.569.918 1.569 2.394 0 3.299l-4.267 2.473a6.353 6.353 0 0 1-5.729 0Zm8.457 4.881 4.28 2.473a6.346 6.346 0 0 0 5.729 0l4.267-2.46a1.742 1.742 0 0 0 0-3.311l-4.294-2.474a6.31 6.31 0 0 0-5.729 0l-4.253 2.46a1.743 1.743 0 0 0 0 3.245v.067Zm17.024 9.828-4.294-2.474v-.066a1.743 1.743 0 0 1 0-3.245l4.254-2.461a6.353 6.353 0 0 1 5.729 0l4.293 2.474a1.741 1.741 0 0 1 0 3.311l-4.253 2.461a6.353 6.353 0 0 1-5.729 0Zm8.455 4.814 4.293 2.473c1.8.917 3.93.917 5.73 0l4.253-2.46a1.741 1.741 0 0 0 0-3.311l-4.293-2.474a6.353 6.353 0 0 0-5.729 0l-4.254 2.46a1.743 1.743 0 0 0 0 3.312Zm17.027 9.841-4.293-2.487h-.014c-1.581-.971-1.595-2.394.014-3.285l4.267-2.473a6.353 6.353 0 0 1 5.729 0l4.28 2.473a1.743 1.743 0 0 1 0 3.312l-4.254 2.46a6.353 6.353 0 0 1-5.729 0Zm8.457 4.881 4.281 2.473c1.801.91 3.927.91 5.729 0l4.267-2.46a1.742 1.742 0 0 0 0-3.312l-4.281-2.486a6.346 6.346 0 0 0-5.729 0l-4.267 2.46a1.742 1.742 0 0 0-.013 3.325h.013Zm17.014 9.827-4.28-2.473h-.014a1.743 1.743 0 0 1 .014-3.312l4.266-2.46a6.311 6.311 0 0 1 5.73 0l4.28 2.474a1.741 1.741 0 0 1 0 3.311l-4.267 2.46a6.346 6.346 0 0 1-5.729 0Zm8.455 4.881 4.28 2.474c1.802.91 3.928.91 5.729 0l4.267-2.461a1.741 1.741 0 0 0 0-3.311l-4.32-2.46a6.346 6.346 0 0 0-5.729 0l-4.253 2.46a1.742 1.742 0 0 0 .013 3.298h.013ZM383 386.955l-4.294-2.474h-.013a1.741 1.741 0 0 1 .013-3.311l4.254-2.46a6.346 6.346 0 0 1 5.729 0l4.294 2.473a1.744 1.744 0 0 1 0 3.312l-4.254 2.46a6.31 6.31 0 0 1-5.729 0Zm22.981 1.769-4.28-2.474a6.31 6.31 0 0 0-5.729 0l-4.28 2.407a1.743 1.743 0 0 0 0 3.312l4.28 2.473c1.801.91 3.928.91 5.729 0l4.267-2.46a1.742 1.742 0 0 0 0-3.258h.013Zm-174.77-87.374 9.943 5.745h-.08a1.743 1.743 0 0 1 .067 3.299l-4.254 2.46a6.31 6.31 0 0 1-5.729 0l-9.943-5.732a1.742 1.742 0 0 1 0-3.311l4.267-2.461a6.353 6.353 0 0 1 5.729 0Zm22.663 13.1-4.293-2.474a6.353 6.353 0 0 0-5.729 0l-4.254 2.46a1.743 1.743 0 0 0 0 3.312l4.294 2.473a6.31 6.31 0 0 0 5.729 0l4.253-2.46a1.741 1.741 0 0 0 0-3.311Zm8.454 4.88 4.281 2.487h-.067c1.582.918 1.595 2.394.067 3.298l-4.254 2.461a6.315 6.315 0 0 1-5.729 0l-4.294-2.474a1.742 1.742 0 0 1 0-3.311l4.267-2.461a6.315 6.315 0 0 1 5.729 0Zm93.434 53.98-80.699-46.545a6.31 6.31 0 0 0-5.729 0l-4.267 2.46a1.741 1.741 0 0 0 0 3.311l80.699 46.613c1.801.91 3.928.91 5.729 0l4.267-2.461a1.74 1.74 0 0 0-.066-3.378h.066Zm8.444 4.881 4.293 2.474-.066.013a1.742 1.742 0 0 1 0 3.325l-4.267 2.46a6.31 6.31 0 0 1-5.729 0l-4.28-2.474a1.741 1.741 0 0 1 0-3.311l4.32-2.487a6.353 6.353 0 0 1 5.729 0Zm17.041 9.828-4.294-2.474a6.353 6.353 0 0 0-5.729 0l-4.254 2.474c-1.581.904-1.568 2.38 0 3.298l4.281 2.487c1.801.91 3.927.91 5.729 0l4.267-2.46a1.743 1.743 0 0 0-.067-3.325h.067Zm8.705 5.04 4.293 2.474h-.066a1.742 1.742 0 0 1 .066 3.311l-4.253 2.46a6.31 6.31 0 0 1-5.729 0l-4.294-2.473a1.744 1.744 0 0 1 0-3.312l4.254-2.46a6.353 6.353 0 0 1 5.729 0Z" fill="#CED3F4" style="mix-blend-mode:multiply"/><path fill-rule="evenodd" clip-rule="evenodd" d="m290.823 277.876-10.738-6.213a1.504 1.504 0 0 1 0-2.847 5.457 5.457 0 0 1 4.931 0l10.737 6.199a1.517 1.517 0 0 1 0 2.861 5.498 5.498 0 0 1-4.93 0Zm12.732 7.37-5.076-2.94v-.014c-1.369-.785-1.383-2.115-.014-2.833a5.414 5.414 0 0 1 4.931 0l5.089 2.94a1.503 1.503 0 0 1 0 2.847 5.46 5.46 0 0 1-4.93 0Zm7.656 4.416 5.089 2.94a5.414 5.414 0 0 0 4.931 0c1.329-.785 1.329-2.062 0-2.847l-5.103-2.926a5.42 5.42 0 0 0-4.931 0 1.503 1.503 0 0 0 .014 2.82v.013Zm17.82 10.297-5.09-2.94v-.013a1.505 1.505 0 0 1 0-2.834 5.455 5.455 0 0 1 4.93 0l5.09 2.94a1.504 1.504 0 0 1 0 2.847 5.418 5.418 0 0 1-4.93 0Zm7.641 4.43 5.09 2.94a5.455 5.455 0 0 0 4.93 0c1.329-.785 1.329-2.049 0-2.847l-5.036-2.953a5.455 5.455 0 0 0-4.93 0c-1.422.772-1.422 2.049-.054 2.847v.013Zm17.823 10.297-5.089-2.94v-.013a1.504 1.504 0 0 1 0-2.847 5.455 5.455 0 0 1 4.93 0l5.09 2.94a1.517 1.517 0 0 1 0 2.86 5.457 5.457 0 0 1-4.931 0Zm7.655 4.417 5.077 2.94a5.46 5.46 0 0 0 4.93 0 1.504 1.504 0 0 0 0-2.847l-5.09-2.94a5.412 5.412 0 0 0-4.93 0c-1.369.771-1.355 2.048.013 2.833v.014Zm17.806 10.296-5.076-2.94v-.013c-1.329-.785-1.329-2.062 0-2.834a5.39 5.39 0 0 1 4.917 0l5.089 2.94c1.329.785 1.329 2.062 0 2.847a5.418 5.418 0 0 1-4.93 0Zm7.651 4.43 5.09 2.927a5.418 5.418 0 0 0 4.93 0c1.329-.785 1.329-2.062 0-2.847l-5.077-2.94a5.455 5.455 0 0 0-4.93 0 1.517 1.517 0 0 0-.013 2.847v.013Zm17.822 10.297-5.09-2.94v-.013c-1.369-.798-1.369-2.062 0-2.834a5.455 5.455 0 0 1 4.93 0l5.09 2.94c1.329.798 1.329 2.062 0 2.847a5.455 5.455 0 0 1-4.93 0Zm7.641 4.417 5.089 2.94a5.463 5.463 0 0 0 4.931 0 1.517 1.517 0 0 0 0-2.861l-5.09-2.94a5.46 5.46 0 0 0-4.93 0 1.504 1.504 0 0 0 0 2.847v.014Zm17.825 10.297-5.09-2.94v-.014a1.503 1.503 0 0 1-.04-2.833 5.414 5.414 0 0 1 4.931 0l5.129 2.94a1.503 1.503 0 0 1 0 2.847 5.46 5.46 0 0 1-4.93 0Zm7.92 4.576 5.076 2.94a5.46 5.46 0 0 0 4.93 0c1.329-.772 1.329-2.049 0-2.847l-5.089-2.94a5.457 5.457 0 0 0-4.931 0c-1.369.758-1.355 2.088.014 2.833v.014Zm-165.777-82.188-4.412-2.541a1.716 1.716 0 0 1 0-3.259l4.372-2.528a6.24 6.24 0 0 1 5.622 0l4.398 2.554a1.718 1.718 0 0 1 0 3.247l-4.372 2.527a6.21 6.21 0 0 1-5.608 0Zm18.348 7.37 4.372-2.528c1.555-.891 1.542-2.341 0-3.246l-4.398-2.54a6.176 6.176 0 0 0-5.609 0l-4.385 2.527c-1.542.891-1.528 2.342 0 3.246l4.399 2.541a6.17 6.17 0 0 0 5.621 0Zm7.118 7.343-4.399-2.541c-1.555-.904-1.621-2.354 0-3.246l4.386-2.527a6.174 6.174 0 0 1 5.608 0l4.398 2.541c1.529.904 1.542 2.354 0 3.246l-4.385 2.527a6.174 6.174 0 0 1-5.608 0Zm8.335 4.816 4.398 2.554a6.213 6.213 0 0 0 5.609 0l4.385-2.527c1.542-.891 1.528-2.342 0-3.246l-4.399-2.541a6.21 6.21 0 0 0-5.608 0l-4.372 2.528a1.715 1.715 0 0 0-.013 3.232Zm22.698 1.597 4.412 2.554a1.702 1.702 0 0 1 0 3.232l-4.372 2.528a6.203 6.203 0 0 1-5.622 0l-4.399-2.554a1.703 1.703 0 0 1 0-3.233l4.373-2.527a6.174 6.174 0 0 1 5.608 0Zm12.725 7.37a6.174 6.174 0 0 0-5.608 0l-4.305 2.514a1.716 1.716 0 0 0 0 3.246l4.412 2.541a6.21 6.21 0 0 0 5.608 0l4.372-2.527a1.717 1.717 0 0 0-.067-3.233l-4.412-2.541Zm7.131 7.356a6.2 6.2 0 0 1 5.621 0l4.399 2.541c1.555.905 1.568 2.355 0 3.246l-4.372 2.528a6.174 6.174 0 0 1-5.608 0l-4.412-2.541a1.716 1.716 0 0 1 0-3.246l4.372-2.528Zm18.349 7.357a6.174 6.174 0 0 0-5.608 0l-4.385 2.528c-1.542.891-1.528 2.341 0 3.246l4.399 2.541a6.174 6.174 0 0 0 5.608 0l4.372-2.528c1.581-.825 1.568-2.341.013-3.246l-4.399-2.541Zm7.123 7.357a6.21 6.21 0 0 1 5.608 0l4.399 2.541c1.555.904 1.568 2.355.013 3.259l-4.385 2.528a6.217 6.217 0 0 1-5.608 0l-4.399-2.554a1.718 1.718 0 0 1 0-3.246l4.372-2.528Zm18.339 7.357a6.174 6.174 0 0 0-5.608 0l-4.372 2.527c-1.555.892-1.542 2.342 0 3.233l4.398 2.554a6.203 6.203 0 0 0 5.622 0l4.372-2.528a1.701 1.701 0 0 0 0-3.232l-4.412-2.554Zm12.782 15.671a6.217 6.217 0 0 1-5.608 0l-4.412-2.541a1.715 1.715 0 0 1-1.157-1.623c0-.733.464-1.385 1.157-1.623l4.372-2.528a6.174 6.174 0 0 1 5.608 0l4.412 2.541a1.716 1.716 0 0 1 0 3.246l-4.372 2.528Zm12.743-.945a6.2 6.2 0 0 0-5.621 0l-4.373 2.528a1.716 1.716 0 0 0 0 3.246l4.412 2.541a6.174 6.174 0 0 0 5.608 0l4.373-2.528a1.717 1.717 0 0 0-.054-3.246l-4.345-2.541Zm12.949 7.45 10.007 5.867h.04c1.555.905 1.568 2.355.013 3.18l-4.385 2.527a6.174 6.174 0 0 1-5.608 0l-10.06-5.8a1.716 1.716 0 0 1 0-3.246l4.372-2.528a6.238 6.238 0 0 1 5.621 0ZM256.84 285.498l10.06 5.814a6.217 6.217 0 0 0 5.608 0l4.372-2.541a1.702 1.702 0 0 0 0-3.233l-10.06-5.813a6.174 6.174 0 0 0-5.608 0l-4.372 2.527c-1.568.892-1.568 2.342 0 3.246Zm22.784 13.184-4.412-2.541a1.716 1.716 0 0 1 0-3.246l4.372-2.528a6.2 6.2 0 0 1 5.621 0l4.399 2.541a1.717 1.717 0 0 1 0 3.246l-4.372 2.528a6.174 6.174 0 0 1-5.608 0Zm12.728 7.357a6.174 6.174 0 0 0 5.608 0l4.373-2.528c1.554-.891 1.541-2.341 0-3.246l-4.399-2.541a6.174 6.174 0 0 0-5.608 0l-4.386 2.528c-1.541.891-1.528 2.341 0 3.246l4.412 2.541Zm18.336 7.356a6.176 6.176 0 0 1-5.609 0l-4.398-2.541a1.716 1.716 0 0 1 0-3.246l4.385-2.527a6.21 6.21 0 0 1 5.608 0l4.399 2.541c1.528.904 1.542 2.354 0 3.246l-4.385 2.527Zm7.088-.957-4.373 2.541c-1.555.891-1.541 2.341 0 3.232l4.399 2.554a6.21 6.21 0 0 0 5.608 0l4.386-2.527c1.541-.891 1.528-2.342 0-3.233l-4.399-2.554a6.214 6.214 0 0 0-5.661-.027l.04.014Zm8.092 10.044 4.904-2.834.013-.013a5.603 5.603 0 0 1 5.063.026l4.944 2.861a1.543 1.543 0 0 1 0 2.926l-4.917 2.834a5.56 5.56 0 0 1-5.063 0l-4.944-2.86a1.557 1.557 0 0 1 0-2.94Zm17.635 4.523-4.904 2.847a1.542 1.542 0 0 0 0 2.926l4.944 2.861c1.595.81 3.481.81 5.076 0l4.904-2.834a1.544 1.544 0 0 0 0-2.927l-4.944-2.86a5.644 5.644 0 0 0-5.063-.027l-.013.014Zm7.827 10.203 4.917-2.847.026-.013a5.617 5.617 0 0 1 5.037.013l4.943 2.861c1.396.811 1.409 2.128 0 2.926l-4.903 2.847a5.639 5.639 0 0 1-5.077 0l-4.943-2.86a1.544 1.544 0 0 1 0-2.927Zm17.647 4.523-4.917 2.834a1.543 1.543 0 0 0 0 2.927l4.944 2.86c1.595.81 3.481.81 5.076 0l4.917-2.847c1.395-.798 1.329-2.115 0-2.927l-4.943-2.86a5.562 5.562 0 0 0-5.064 0l-.013.013Zm7.813 10.191 4.917-2.834.013-.013a5.605 5.605 0 0 1 5.117 0l4.89 2.86a1.557 1.557 0 0 1 0 2.94l-4.917 2.834a5.566 5.566 0 0 1-5.063 0l-4.957-2.847a1.557 1.557 0 0 1 0-2.94Zm22.77 13.13 4.917-2.833a1.543 1.543 0 0 0 0-2.927l-4.944-2.86a5.6 5.6 0 0 0-5.076 0l-4.917 2.833a1.557 1.557 0 0 0 0 2.94l4.944 2.86a5.56 5.56 0 0 0 5.089 0l-.013-.013Zm17.643 4.523-4.917 2.847.013.014a5.62 5.62 0 0 1-5.077 0l-4.943-2.861a1.542 1.542 0 0 1 0-2.926l4.903-2.861a5.645 5.645 0 0 1 5.077 0l4.944 2.861a1.542 1.542 0 0 1 0 2.926Zm12.987 4.576-4.943-2.846a5.601 5.601 0 0 0-5.077 0l-4.904 2.833a1.556 1.556 0 0 0 0 2.94l4.944 2.86a5.601 5.601 0 0 0 5.077 0l4.903-2.833a1.557 1.557 0 0 0 .014-2.94l-.014-.014Zm-164.391-72.782a5.6 5.6 0 0 1-5.076 0l-15.947-9.219a1.557 1.557 0 0 1 .013-2.94l4.917-2.834a5.524 5.524 0 0 1 5.063 0l15.947 9.22c1.329.811 1.395 2.128 0 2.926l-4.917 2.847Zm2.765 4.523 4.944 2.847a5.56 5.56 0 0 0 5.063 0l4.917-2.833a1.557 1.557 0 0 0 0-2.94l-4.983-2.834a5.607 5.607 0 0 0-5.077 0l-4.917 2.834a1.556 1.556 0 0 0 .053 2.926Zm17.675 10.217-4.944-2.86h-.026a1.556 1.556 0 0 1 .013-2.927l4.917-2.833a5.6 5.6 0 0 1 5.076 0l4.944 2.86a1.544 1.544 0 0 1 0 2.927l-4.917 2.833a5.56 5.56 0 0 1-5.063 0Zm7.788 4.497 4.943 2.86a5.645 5.645 0 0 0 5.077 0l4.903-2.847a1.543 1.543 0 0 0 0-2.926l-4.943-2.861a5.645 5.645 0 0 0-5.077 0l-4.903 2.847a1.544 1.544 0 0 0-.027 2.927h.027Zm27.656 7.383-4.904 2.847h-.026a5.645 5.645 0 0 1-5.05 0l-4.944-2.86a1.544 1.544 0 0 1 0-2.927l4.917-2.847a5.615 5.615 0 0 1 5.063 0l4.944 2.86c1.395.812 1.409 2.129 0 2.927Zm7.825 10.204 4.917-2.847c1.329-.798 1.329-2.115 0-2.927l-4.943-2.86a5.562 5.562 0 0 0-5.064 0l-4.917 2.833a1.544 1.544 0 0 0 0 2.927l4.878 2.86c1.6.824 3.498.829 5.103.014h.026Zm17.649 4.523-4.917 2.834h-.027a5.567 5.567 0 0 1-5.037 0l-4.956-2.847a1.557 1.557 0 0 1 0-2.94l4.917-2.834a5.563 5.563 0 0 1 5.076 0l4.944 2.847a1.557 1.557 0 0 1 0 2.94Zm7.818 10.19 4.917-2.833a1.544 1.544 0 0 0 0-2.927l-4.943-2.86a5.601 5.601 0 0 0-5.077 0l-4.917 2.847c-1.395.798-1.329 2.115 0 2.926l4.944 2.861a5.563 5.563 0 0 0 5.05-.014h.026Zm17.645 4.523-4.917 2.847h-.027a5.612 5.612 0 0 1-5.129-.013l-4.944-2.86a1.543 1.543 0 0 1 0-2.927l4.997-2.833a5.636 5.636 0 0 1 5.076 0l4.944 2.86a1.543 1.543 0 0 1 0 2.926Zm7.827 10.204 4.904-2.847a1.543 1.543 0 0 0 0-2.927l-4.944-2.86a5.615 5.615 0 0 0-5.063 0l-4.917 2.847a1.544 1.544 0 0 0 0 2.927l4.944 2.86a5.645 5.645 0 0 0 5.05 0h.026Zm7.6 7.343-4.944-2.86h.027a1.544 1.544 0 0 1-.013-2.94l4.917-2.833a5.56 5.56 0 0 1 5.063 0l4.944 2.86c1.328.811 1.395 2.128 0 2.927l-4.917 2.846a5.601 5.601 0 0 1-5.077 0Zm30.339 6.013-12.585-7.263a5.56 5.56 0 0 0-5.063 0l-4.917 2.833a1.557 1.557 0 0 0 0 2.941l12.585 7.263a5.615 5.615 0 0 0 5.063 0l4.917-2.847a1.543 1.543 0 0 0 .027-2.927h-.027Zm-156.973-68.565a6.305 6.305 0 0 1-5.727 0l-22.659-13.09a1.744 1.744 0 0 1 0-3.313l4.253-2.461a6.307 6.307 0 0 1 5.728 0l22.658 13.104c1.568.918 1.581 2.394 0 3.299l-4.253 2.461Zm7.003 7.357a6.35 6.35 0 0 0 5.728 0l4.265-2.461a1.744 1.744 0 0 0 0-3.313l-4.279-2.474a6.305 6.305 0 0 0-5.727 0l-4.266 2.461a1.741 1.741 0 0 0 0 3.312l4.279 2.475Zm18.461 7.357a6.35 6.35 0 0 1-5.728 0l-4.279-2.475a1.743 1.743 0 0 1-.026-3.246l4.292-2.527a6.344 6.344 0 0 1 5.728 0l4.279 2.474a1.743 1.743 0 0 1 0 3.312l-4.266 2.462Zm2.727 4.882 4.279 2.474c1.8.917 3.929.917 5.728 0l4.266-2.461a1.742 1.742 0 0 0 0-3.312l-4.292-2.475a6.35 6.35 0 0 0-5.728 0l-4.253 2.462a1.742 1.742 0 0 0 0 3.352v-.04Zm22.748 9.831a6.305 6.305 0 0 1-5.727 0l-4.293-2.474a1.744 1.744 0 0 1-.013-3.326l4.266-2.448a6.348 6.348 0 0 1 5.727 0l4.293 2.474a1.744 1.744 0 0 1 0 3.313l-4.253 2.461Zm7.014 7.33c1.8.917 3.929.917 5.728 0l4.253-2.461c1.581-.905 1.568-2.381 0-3.299l-4.293-2.488a6.305 6.305 0 0 0-5.727 0l-4.253 2.461a1.743 1.743 0 0 0 0 3.299l4.292 2.488Zm12.733 7.357-4.293-2.475-.013.04a1.743 1.743 0 0 1 .013-3.352l4.266-2.461a6.307 6.307 0 0 1 5.728 0l4.279 2.474a1.744 1.744 0 0 1 0 3.313l-4.253 2.461c-1.8.91-3.926.91-5.727 0Zm8.453 4.882 4.28 2.475c1.8.91 3.926.91 5.727 0l4.266-2.462a1.741 1.741 0 0 0 0-3.312l-4.279-2.474a6.344 6.344 0 0 0-5.728 0l-4.266 2.461a1.742 1.742 0 0 0-.013 3.352l.013-.04Zm17.01 9.832-4.279-2.475-.013.04a1.742 1.742 0 0 1 .013-3.352l4.266-2.462a6.348 6.348 0 0 1 5.727 0l4.28 2.475a1.743 1.743 0 0 1 0 3.312l-4.266 2.462a6.307 6.307 0 0 1-5.728 0Zm8.452 4.882 4.279 2.488a6.35 6.35 0 0 0 5.728 0l4.266-2.462a1.742 1.742 0 0 0 0-3.312l-4.293-2.474a6.342 6.342 0 0 0-5.727 0l-4.253 2.461a1.743 1.743 0 0 0-.013 3.339l.013-.04Zm17.022 9.844-4.292-2.474-.013.04a1.743 1.743 0 0 1 .013-3.353l4.252-2.461a6.307 6.307 0 0 1 5.728 0l4.293 2.488c1.568.918 1.581 2.394 0 3.299l-4.253 2.461a6.307 6.307 0 0 1-5.728 0Zm22.977 1.756-4.293-2.461a6.348 6.348 0 0 0-5.727 0l-4.266 2.461a1.743 1.743 0 0 0 0 3.313l4.279 2.474a6.342 6.342 0 0 0 5.727 0l4.266-2.461a1.743 1.743 0 0 0 0-3.286l.014-.04Zm-174.725-87.389 9.941 5.747-.08.04a1.743 1.743 0 0 1-.013 3.259l-4.253 2.461a6.307 6.307 0 0 1-5.728 0l-9.94-5.747a1.741 1.741 0 0 1 0-3.312l4.346-2.448a6.342 6.342 0 0 1 5.727 0Zm22.661 13.09-4.293-2.474a6.307 6.307 0 0 0-5.728 0l-4.252 2.461a1.742 1.742 0 0 0 0 3.313l4.292 2.474a6.344 6.344 0 0 0 5.728 0l4.253-2.461a1.743 1.743 0 0 0 0-3.313Zm8.451 4.883 4.279 2.474-.066.053a1.744 1.744 0 0 1-.027 3.3l-4.253 2.461c-1.8.91-3.926.91-5.727 0l-4.2-2.515a1.742 1.742 0 0 1 0-3.312l4.266-2.461a6.307 6.307 0 0 1 5.728 0Zm93.409 53.984-80.679-46.628a6.348 6.348 0 0 0-5.727 0l-4.266 2.462a1.741 1.741 0 0 0 0 3.312l80.679 46.628a6.307 6.307 0 0 0 5.728 0l4.265-2.461a1.742 1.742 0 0 0-.066-3.259l.066-.054Zm8.438 4.989 4.293 2.382-.067.053c1.595.918 1.595 2.394.053 3.352l-4.266 2.461a6.305 6.305 0 0 1-5.727 0l-4.279-2.487a1.743 1.743 0 0 1 0-3.3l4.266-2.461a6.305 6.305 0 0 1 5.727 0Zm17.037 9.738-4.292-2.474a6.307 6.307 0 0 0-5.728 0l-4.252 2.461a1.742 1.742 0 0 0 0 3.312l4.279 2.475a6.35 6.35 0 0 0 5.728 0l4.265-2.461a1.742 1.742 0 0 0-.066-3.26l.066-.053Zm8.705 5.029 4.293 2.474-.067.054a1.74 1.74 0 0 1 1.158 1.606 1.741 1.741 0 0 1-1.091 1.653l-4.253 2.461a6.305 6.305 0 0 1-5.727 0l-4.293-2.488c-1.568-.918-1.581-2.394 0-3.299l4.253-2.461a6.305 6.305 0 0 1 5.727 0Z" fill="#F6F8FC"/><path fill-rule="evenodd" clip-rule="evenodd" d="M493.611 362.473 282.137 240.148c-7.276-4.202-13.16-15.504-13.16-25.263V51.195c0-9.72 5.884-14.187 13.16-9.985l211.474 122.352c7.262 4.215 13.16 15.503 13.16 25.262v163.677c-.04 9.706-5.938 14.187-13.16 9.972Z" fill="url(#h)"/><path fill-rule="evenodd" clip-rule="evenodd" d="M496.692 353.538 286.478 232.697c-5.878-3.712-9.509-11.137-9.509-18.748V49.992a2.333 2.333 0 0 1 1.159-2.057 2.347 2.347 0 0 1 2.366.002l.425.252 210.36 120.933c6.982 3.977 9.496 11.15 9.496 18.748v163.692a2.505 2.505 0 0 1-1.257 2.178 2.52 2.52 0 0 1-2.52-.003l-.306-.199Z" fill="url(#i)"/><path fill-rule="evenodd" clip-rule="evenodd" d="M499.527 160.163 287.262 38.178a8.972 8.972 0 0 0-7.73-1.127c-.279.106-6.293 3.591-6.559 3.737 2.248-1.087 5.109-.888 8.222.9l212.291 121.92c7.291 4.2 13.212 15.448 13.212 25.173v163.097c0 6.042-2.302 10.043-5.814 11.183a2.168 2.168 0 0 0 1.157-.398c.173-.093 6.506-3.869 6.653-3.975 2.501-1.749 4.071-5.299 4.071-10.321V185.23c-.027-9.685-5.974-20.933-13.238-25.067Z" fill="url(#j)"/><path d="M444.288 381.257 233.255 260.108C224.438 254.552 219 243.44 219 232.077V68.352a3.48 3.48 0 0 1 .476-1.745c.31-.53.755-.97 1.29-1.275a3.536 3.536 0 0 1 1.76-.463c-.534-.308.617.002 0 0L279.848 48l214.131 122.88C501 174.876 501 201.85 501 232.077v119.127c-.028.648-50.736 28.381-51.075 28.936a3.871 3.871 0 0 1-1.377 1.341 3.905 3.905 0 0 1-3.736.085l-.524-.309Z" fill="#785FD3" fill-opacity=".3"/><path d="M444.288 381.257 233.255 260.108C224.438 254.552 219 243.44 219 232.077V68.352a3.48 3.48 0 0 1 .476-1.745c.31-.53.755-.97 1.29-1.275a3.536 3.536 0 0 1 3.517.01l.621.367 211.324 121.285c10.487 5.999 14.255 16.686 14.255 28.049v163.262a3.838 3.838 0 0 1-.558 1.835 3.871 3.871 0 0 1-1.377 1.341 3.905 3.905 0 0 1-3.736.085l-.524-.309Z" fill="url(#k)"/><mask id="m" style="mask-type:alpha" maskUnits="userSpaceOnUse" x="217" y="62" width="236" height="322"><path d="M444.288 381.257 233.255 260.108C224.438 254.552 219 243.44 219 232.077V68.352a3.48 3.48 0 0 1 .476-1.745c.31-.53.755-.97 1.29-1.275a3.536 3.536 0 0 1 3.517.01l.621.367 211.324 121.285c10.487 5.999 14.255 16.686 14.255 28.049v163.262a3.838 3.838 0 0 1-.558 1.835 3.871 3.871 0 0 1-1.377 1.341 3.905 3.905 0 0 1-3.736.085l-.524-.309Z" fill="url(#l)" stroke="#fff" stroke-width="4"/></mask><g mask="url(#m)"><path d="M348.433 266.278c12.285-6.853 12.285-30.123 0-51.974-12.285-21.851-32.204-34.009-44.489-27.156-12.286 6.854-12.286 30.123 0 51.974 12.285 21.851 32.204 34.009 44.489 27.156Z" fill="#fff"/><rect width="9.99" height="8.015" rx="2" transform="matrix(0 -1 .81753 .5755 311.441 218.833)" fill="#5E5770"/><rect width="9.99" height="8.015" rx="2" transform="matrix(0 -1 .81753 .5755 327.004 242.775)" fill="#5E5770"/><rect width="9.99" height="8.015" rx="2" transform="matrix(0 -1 .81753 .5755 327.004 229.788)" fill="#5E5770"/><rect width="9.99" height="8.015" rx="2" transform="matrix(0 -1 .81753 .5755 327.004 216.801)" fill="#5E5770"/><path fill-rule="evenodd" clip-rule="evenodd" d="M322.093 209.345v11.988l4.914 3.46v.999l-4.914-3.46v11.988l4.914 3.46v.999l-4.914-3.459-.819-.577v-12.987l-2.458-1.73v-.999l2.458 1.73v-12.988l.945.665 4.788 3.371v.999l-4.914-3.459Z" fill="#5E5770"/><path d="M353.92 276.037c15.315-8.543 15.315-37.551 0-64.792-15.316-27.24-40.147-42.397-55.462-33.854-15.316 8.544-15.316 37.552 0 64.793 15.315 27.24 40.146 42.397 55.462 33.853Z" stroke="#585857" stroke-width=".772" stroke-miterlimit="10" stroke-dasharray="3.64 3.64 3.64 3.64 3.64 3.64"/><path d="m389.458 222.137-34.131-20.834c-4.385-2.676-7.94-9-7.94-14.123 0-5.123 3.555-7.106 7.94-4.429l34.131 20.833c4.386 2.677 7.941 9 7.941 14.124 0 5.123-3.555 7.106-7.941 4.429Z" fill="url(#n)"/><path d="M355.763 200.134c3.707 2.262 6.712.586 6.712-3.744 0-4.331-3.005-9.676-6.712-11.939-3.707-2.262-6.712-.586-6.712 3.745 0 4.33 3.005 9.675 6.712 11.938Z" stroke="#fff" stroke-miterlimit="10"/><path d="m392.692 326.984-34.131-20.833c-4.385-2.677-7.94-9-7.94-14.124 0-5.123 3.555-7.106 7.94-4.429l34.131 20.833c4.386 2.677 7.941 9 7.941 14.123 0 5.124-3.555 7.107-7.941 4.43Z" fill="url(#o)"/><path d="M358.997 304.981c3.707 2.263 6.712.586 6.712-3.744 0-4.331-3.005-9.675-6.712-11.938s-6.712-.587-6.712 3.744 3.005 9.675 6.712 11.938Z" stroke="#fff" stroke-miterlimit="10"/><path d="m412.286 290.401-34.131-20.834c-4.385-2.677-7.94-9-7.94-14.123 0-5.123 3.555-7.107 7.94-4.43l34.131 20.834c4.386 2.677 7.941 9 7.941 14.123 0 5.123-3.555 7.106-7.941 4.43Z" fill="url(#p)"/><path d="M378.591 268.398c3.707 2.262 6.712.586 6.712-3.745 0-4.33-3.005-9.675-6.712-11.938-3.707-2.262-6.712-.586-6.712 3.745 0 4.33 3.005 9.675 6.712 11.938Z" stroke="#fff" stroke-miterlimit="10"/><path d="M345.358 202.068c2.032 1.24 3.679.321 3.679-2.052 0-2.374-1.647-5.303-3.679-6.543-2.031-1.24-3.678-.321-3.678 2.052s1.647 5.303 3.678 6.543Z" fill="url(#q)"/><path d="M345.358 200.319c1.205.736 2.182.191 2.182-1.217 0-1.407-.977-3.145-2.182-3.881-1.205-.735-2.182-.19-2.182 1.218 0 1.407.977 3.145 2.182 3.88Z" fill="#fff"/><path d="M349.042 281.715c2.031 1.241 3.678.322 3.678-2.052 0-2.373-1.647-5.302-3.678-6.542-2.032-1.24-3.679-.322-3.679 2.052 0 2.373 1.647 5.302 3.679 6.542Z" fill="url(#r)"/><path d="M349.041 279.967c1.205.736 2.182.191 2.182-1.217 0-1.408-.977-3.145-2.182-3.881-1.205-.735-2.182-.19-2.182 1.217 0 1.408.977 3.146 2.182 3.881Z" fill="#fff"/><path d="M365.077 256.606c2.032 1.24 3.678.321 3.678-2.052s-1.646-5.302-3.678-6.543c-2.032-1.24-3.679-.321-3.679 2.052 0 2.374 1.647 5.303 3.679 6.543Z" fill="url(#s)"/><path d="M365.076 254.858c1.206.735 2.182.19 2.182-1.218 0-1.407-.976-3.145-2.182-3.88-1.205-.736-2.181-.191-2.181 1.217 0 1.408.976 3.145 2.181 3.881Z" fill="#fff"/><path d="m263.405 145.197 34.131 20.833c4.386 2.677 7.941.694 7.941-4.429s-3.555-11.447-7.941-14.123l-34.131-20.834c-4.385-2.677-7.94-.694-7.94 4.43 0 5.123 3.555 11.446 7.94 14.123Z" fill="url(#t)"/><path d="M263.732 143.961c3.706 2.263 6.711.587 6.711-3.744 0-4.33-3.005-9.675-6.711-11.938-3.707-2.263-6.712-.586-6.712 3.744 0 4.331 3.005 9.676 6.712 11.938Z" stroke="#fff" stroke-miterlimit="10"/><path d="m258.464 245.053 34.131 20.833c4.386 2.677 7.941.694 7.941-4.429s-3.555-11.446-7.941-14.123L258.464 226.5c-4.385-2.677-7.941-.694-7.941 4.43 0 5.123 3.556 11.446 7.941 14.123Z" fill="url(#u)"/><path d="M258.79 243.817c3.707 2.263 6.712.587 6.712-3.744 0-4.33-3.005-9.675-6.712-11.938s-6.712-.586-6.712 3.744c0 4.331 3.005 9.676 6.712 11.938Z" stroke="#fff" stroke-miterlimit="10"/><path d="m239.148 184.717 34.131 20.833c4.385 2.677 7.94.694 7.94-4.429 0-5.124-3.555-11.447-7.94-14.124l-34.131-20.833c-4.386-2.677-7.941-.693-7.941 4.43 0 5.123 3.555 11.446 7.941 14.123Z" fill="url(#v)"/><path d="M239.368 183.418c3.707 2.263 6.712.586 6.712-3.744 0-4.331-3.005-9.676-6.712-11.938-3.707-2.263-6.712-.587-6.712 3.744 0 4.33 3.005 9.675 6.712 11.938Z" stroke="#fff" stroke-miterlimit="10"/><path d="M307.663 179.056c2.031 1.24 3.678.321 3.678-2.052s-1.647-5.303-3.678-6.543c-2.032-1.24-3.679-.321-3.679 2.052 0 2.374 1.647 5.303 3.679 6.543Z" fill="url(#w)"/><path d="M307.662 177.308c1.205.735 2.182.19 2.182-1.218 0-1.407-.977-3.145-2.182-3.88-1.205-.736-2.182-.191-2.182 1.217 0 1.407.977 3.145 2.182 3.881Z" fill="#fff"/><path d="M302.401 253.246c2.032 1.24 3.679.321 3.679-2.052 0-2.374-1.647-5.303-3.679-6.543-2.031-1.24-3.678-.321-3.678 2.052s1.647 5.303 3.678 6.543Z" fill="url(#x)"/><path d="M302.401 251.497c1.205.736 2.182.191 2.182-1.217 0-1.407-.977-3.145-2.182-3.881-1.205-.735-2.182-.19-2.182 1.218 0 1.407.977 3.145 2.182 3.88Z" fill="#fff"/><path d="M286.792 208.821c2.031 1.24 3.678.322 3.678-2.052 0-2.373-1.647-5.302-3.678-6.542-2.032-1.24-3.679-.322-3.679 2.052 0 2.373 1.647 5.302 3.679 6.542Z" fill="url(#y)"/><path d="M286.791 207.073c1.205.736 2.182.191 2.182-1.217 0-1.408-.977-3.145-2.182-3.881-1.205-.735-2.182-.19-2.182 1.217 0 1.408.977 3.146 2.182 3.881Z" fill="#fff"/><path d="M301.456 226.358c.079-.041.099-.167.05-.311-1.851-5.47-2.892-10.995-2.892-16.164 0-5.718 1.274-10.316 3.509-13.62.057-.085.036-.247-.053-.392a.02.02 0 0 0-.004-.006c-.12-.197-.308-.277-.386-.161-2.276 3.364-3.575 8.045-3.575 13.868 0 5.264 1.062 10.892 2.947 16.461.076.223.278.388.4.326l.004-.001Z" fill="url(#z)"/><path d="M301.738 227.482a.008.008 0 0 0-.004.002c-.085.04-.107.176-.05.329 4.708 12.703 13.594 24.872 23.832 31.469.142.091.259.028.259-.137v-.006a.583.583 0 0 0-.243-.441c-10.055-6.479-18.784-18.431-23.406-30.908-.08-.215-.269-.365-.388-.308Z" fill="url(#A)"/><path d="M302.389 195.204a.02.02 0 0 0 .004.006c.116.193.297.271.38.166 4.762-6.048 13.155-6.982 22.759-1.446.135.078.243.016.243-.143v-.006a.586.586 0 0 0-.26-.455c-9.777-5.635-18.323-4.684-23.172 1.472-.065.082-.046.254.046.406Z" fill="url(#B)"/><path d="M350.925 256.551c-.079-.137-.099-.287-.05-.372 1.851-3.21 2.893-7.464 2.893-12.633 0-5.718-1.275-11.872-3.51-17.905-.057-.154-.035-.289.053-.326a.008.008 0 0 1 .004-.002c.12-.051.308.099.386.31 2.276 6.143 3.575 12.41 3.575 18.233 0 5.264-1.062 9.595-2.947 12.863-.075.131-.278.048-.4-.162l-.004-.006Z" fill="url(#C)"/><path d="m350.643 257.332.004.006c.086.145.107.307.05.391-4.708 6.956-13.595 8.276-23.832 2.375a.586.586 0 0 1-.26-.454v-.006c0-.159.109-.221.244-.143 10.055 5.795 18.784 4.499 23.406-2.335.08-.117.269-.037.388.166Z" fill="url(#D)"/><path d="M349.992 224.258a.008.008 0 0 1-.004.002c-.116.051-.297-.093-.38-.298-4.762-11.862-13.156-23.043-22.759-29.23a.58.58 0 0 1-.244-.44v-.006c0-.166.119-.229.261-.138 9.777 6.301 18.322 17.684 23.172 29.761.065.161.045.31-.046.349Z" fill="url(#E)"/></g><path opacity=".5" d="m83.94 352.303 57.717-33.102c4.385-2.515 3.835-6.909-1.229-9.814l-55.257-31.69c-5.064-2.905-12.724-3.221-17.11-.705l-57.718 33.101c-4.385 2.516-3.835 6.909 1.23 9.814l55.257 31.691c5.064 2.904 12.725 3.22 17.11.705Z" fill="#4118B2" fill-opacity=".1"/><path d="M.027 273.076v-11.854H30.81l36.397-20.873c4.857-2.786 13.341-2.437 18.95.78l35.037 20.093H152v12.525h-.025c.139 1.885-.92 3.705-3.254 5.043l-63.927 36.662c-4.858 2.785-13.343 2.436-18.951-.78l-61.203-35.1c-3.235-1.855-4.795-4.259-4.613-6.496Z" fill="#312A91"/><path d="M.027 273.076v-11.854H30.81l36.397-20.873c4.857-2.786 13.341-2.437 18.95.78l35.037 20.093H152v12.525h-.025c.139 1.885-.92 3.705-3.254 5.043l-63.927 36.662c-4.858 2.785-13.343 2.436-18.951-.78l-61.203-35.1c-3.235-1.855-4.795-4.259-4.613-6.496Z" fill="url(#F)"/><path d="m84.794 302.928 63.926-36.662c4.858-2.786 4.249-7.652-1.36-10.868l-61.203-35.1c-5.61-3.216-14.093-3.567-18.95-.78L3.28 256.18c-4.858 2.786-4.25 7.652 1.36 10.868l61.203 35.099c5.61 3.218 14.093 3.566 18.95.781Z" fill="#312A91"/><path d="m84.794 302.928 63.926-36.662c4.858-2.786 4.249-7.652-1.36-10.868l-61.203-35.1c-5.61-3.216-14.093-3.567-18.95-.78L3.28 256.18c-4.858 2.786-4.25 7.652 1.36 10.868l61.203 35.099c5.61 3.218 14.093 3.566 18.95.781Z" fill="url(#G)"/><path d="m83.087 294.825 51.505-29.54c3.914-2.245 3.423-6.165-1.096-8.757l-49.311-28.28c-4.52-2.591-11.356-2.873-15.269-.628l-51.505 29.539c-3.914 2.245-3.422 6.164 1.096 8.757l49.31 28.28c4.52 2.592 11.356 2.873 15.27.629Z" fill="url(#H)"/><path d="m133.498 260.36-49.311-28.28c-4.52-2.591-11.356-2.873-15.269-.629l-51.505 29.538c-.967.554-1.662 1.211-2.096 1.925-1.136-2.074-.48-4.278 2.096-5.756l51.505-29.538c3.914-2.245 10.75-1.963 15.269.629l49.311 28.28c3.403 1.952 4.52 4.657 3.192 6.832-.588-1.075-1.65-2.116-3.192-3.001Z" fill="url(#I)"/><path d="m4.64 272.342 61.203 35.099c5.608 3.217 14.093 3.567 18.951.78l63.927-36.661c2.334-1.338 3.392-3.157 3.254-5.042H152v2.595h-.025c.139 1.885-.92 3.705-3.254 5.043l-63.927 36.662c-4.858 2.785-13.343 2.436-18.951-.78l-61.203-35.1c-3.235-1.855-4.796-4.259-4.615-6.496v-2.595c-.18 2.236 1.38 4.639 4.615 6.495Z" fill="url(#J)"/><path d="M15.74 268.884c-.699.401-.699 1.05 0 1.449.698.4 1.829.4 2.525 0 .699-.401.699-1.049 0-1.449-.697-.399-1.827-.399-2.526 0ZM11.806 266.629c-.698.399-.698 1.049 0 1.448.698.4 1.829.4 2.526 0 .698-.399.698-1.049 0-1.448-.697-.401-1.828-.401-2.526 0ZM7.87 264.371c-.699.401-.699 1.049 0 1.449.698.401 1.828.399 2.525 0 .697-.4.697-1.049 0-1.449-.698-.399-1.829-.399-2.526 0Z" fill="#5ECFFF"/><path d="m81.377 287.505 40.402-23.17c3.07-1.761 2.685-4.836-.859-6.869l-38.68-22.184c-3.545-2.033-8.907-2.253-11.977-.494l-40.402 23.171c-3.07 1.761-2.686 4.837.86 6.87l38.678 22.183c3.546 2.033 8.909 2.254 11.978.493Z" fill="url(#K)"/><path opacity=".5" d="M.023 261.222a4.378 4.378 0 0 1 0-.672v-33.109l52.955.234 14.225-8.158c4.857-2.786 13.342-2.437 18.95.779l13.222 7.582 52.621.233v33.111h-.025c.138 1.885-.92 3.704-3.254 5.044L84.79 302.928c-4.857 2.785-13.341 2.436-18.95-.78l-61.203-35.1c-2.913-1.672-4.464-3.788-4.614-5.826Z" fill="#B2B1FF"/><path d="M.027 227.441v-11.855H30.81l36.397-20.873c4.857-2.785 13.341-2.436 18.95.78l35.037 20.093H152v12.525h-.025c.139 1.885-.92 3.705-3.254 5.043l-63.927 36.662c-4.858 2.785-13.343 2.437-18.951-.78l-61.203-35.1c-3.235-1.855-4.795-4.259-4.613-6.495Z" fill="#312A91"/><path d="M.027 227.441v-11.855H30.81l36.397-20.873c4.857-2.785 13.341-2.436 18.95.78l35.037 20.093H152v12.525h-.025c.139 1.885-.92 3.705-3.254 5.043l-63.927 36.662c-4.858 2.785-13.343 2.437-18.951-.78l-61.203-35.1c-3.235-1.855-4.795-4.259-4.613-6.495Z" fill="url(#L)"/><path d="m84.794 257.293 63.926-36.662c4.858-2.786 4.249-7.652-1.36-10.869l-61.203-35.101c-5.61-3.216-14.093-3.566-18.95-.78L3.28 210.544c-4.858 2.785-4.25 7.651 1.36 10.868l61.203 35.099c5.61 3.218 14.093 3.567 18.95.782Z" fill="#312A91"/><path d="m84.794 257.293 63.926-36.662c4.858-2.786 4.249-7.652-1.36-10.869l-61.203-35.101c-5.61-3.216-14.093-3.566-18.95-.78L3.28 210.544c-4.858 2.785-4.25 7.651 1.36 10.868l61.203 35.099c5.61 3.218 14.093 3.567 18.95.782Z" fill="url(#M)"/><path d="m83.08 249.119 51.504-29.54c3.915-2.245 3.423-6.164-1.096-8.757l-49.311-28.279c-4.519-2.592-11.356-2.873-15.269-.628l-51.505 29.538c-3.914 2.245-3.422 6.165 1.097 8.757l49.31 28.28c4.518 2.593 11.355 2.873 15.27.629Z" fill="url(#N)"/><path d="m133.498 214.725-49.311-28.28c-4.52-2.591-11.356-2.873-15.269-.63l-51.506 29.54c-.967.554-1.663 1.211-2.096 1.925-1.137-2.074-.481-4.278 2.096-5.755l51.506-29.54c3.914-2.245 10.75-1.963 15.269.629l49.311 28.28c3.403 1.952 4.52 4.657 3.192 6.832-.588-1.075-1.65-2.116-3.192-3.001Z" fill="url(#O)"/><path d="m4.64 226.706 61.203 35.1c5.608 3.216 14.093 3.567 18.951.78l63.927-36.661c2.334-1.338 3.392-3.157 3.254-5.043H152v2.596h-.025c.139 1.885-.92 3.704-3.254 5.044l-63.927 36.662c-4.858 2.785-13.343 2.436-18.951-.78l-61.203-35.1c-3.235-1.855-4.796-4.259-4.615-6.497v-2.595c-.18 2.235 1.38 4.639 4.615 6.494Z" fill="url(#P)"/><path d="M15.74 223.249c-.699.399-.699 1.049 0 1.449.698.399 1.829.399 2.525 0 .699-.4.699-1.05 0-1.449-.697-.4-1.827-.4-2.526 0ZM11.806 220.993c-.698.4-.698 1.049 0 1.449.698.399 1.829.399 2.526 0 .698-.4.698-1.049 0-1.449-.697-.401-1.828-.401-2.526 0ZM7.87 218.735c-.699.4-.699 1.05 0 1.449.698.401 1.828.4 2.525 0 .697-.399.697-1.049 0-1.449-.698-.399-1.829-.399-2.526 0Z" fill="#5ECFFF"/><path d="m81.142 201.011 10.623 12.988-15.532-8.752-.846-1.046c.423-.202.854-.428 1.285-.672a914.232 914.232 0 0 1 4.47-2.518Z" fill="url(#Q)"/><path d="M126.001 120.096v34.041c0 11.919-8.566 26.413-19.139 32.372-1.493.843-2.978 1.677-4.47 2.519L91.769 214l-10.623-12.988a745.633 745.633 0 0 0-4.47 2.519c-.43.243-.863.47-1.286.672-4.776 2.341-9.073 2.43-12.257.632a30.185 30.185 0 0 0-.248-.145c-3.317-2.008-5.358-6.138-5.358-11.952v-34.032c0-11.928 8.575-26.422 19.149-32.381l30.187-17.013c5.183-2.923 9.885-3.255 13.327-1.424.066.032.141.073.207.113 3.465 1.949 5.604 6.136 5.604 12.095Z" fill="url(#R)"/><path d="M47.606 196.08C44.14 194.129 42 189.934 42 183.983v-34.041c0-11.92 8.567-26.414 19.14-32.373a54473.732 54473.732 0 0 0 30.186-17.02c5.29-2.98 10.076-3.255 13.535-1.304 5.117 2.875 10.217 5.757 15.325 8.64-3.441-1.83-8.143-1.498-13.327 1.424-10.059 5.668-20.127 11.344-30.186 17.013-10.573 5.959-19.15 20.453-19.15 32.381v34.032c0 5.813 2.041 9.944 5.358 11.952-5.09-2.866-10.183-5.732-15.275-8.607Z" fill="url(#S)"/><rect width="10" height="8" rx="2" transform="matrix(0 -1 .83867 -.54464 77.5 168.5)" fill="#fff"/><rect width="10" height="8" rx="2" transform="matrix(0 -1 .83867 -.54464 93.434 171.152)" fill="#fff"/><rect width="10" height="8" rx="2" transform="matrix(0 -1 .83867 -.54464 93.434 158.152)" fill="#fff"/><rect width="10" height="8" rx="2" transform="matrix(0 -1 .83867 -.54464 93.434 145.152)" fill="#fff"/><path fill-rule="evenodd" clip-rule="evenodd" d="M88.402 144.42v12l5.032-3.268v1l-5.032 3.268v12l5.032-3.268v1l-5.032 3.268-.84.544v-13l-2.515 1.634v-1l2.516-1.634v-13l.967-.628 4.904-3.184v1l-5.032 3.268Z" fill="#fff"/><defs><linearGradient id="x" x1="298.723" y1="246.703" x2="306.08" y2="246.703" gradientUnits="userSpaceOnUse"><stop stop-color="#4142C1"/><stop offset="1" stop-color="#5782CF"/></linearGradient><linearGradient id="a" x1="529.5" y1="163.026" x2="462.677" y2="151.373" gradientUnits="userSpaceOnUse"><stop stop-color="#CDCBF7"/><stop offset=".486" stop-color="#D8D0F5"/><stop offset="1" stop-color="#E7D7F7"/></linearGradient><linearGradient id="c" x1="382.827" y1="91.127" x2="323.698" y2="80.833" gradientUnits="userSpaceOnUse"><stop stop-color="#CDCBF7"/><stop offset=".486" stop-color="#D8D0F5"/><stop offset="1" stop-color="#E7D7F7"/></linearGradient><linearGradient id="d" x1="450.241" y1="176.631" x2="507.298" y2="176.631" gradientUnits="userSpaceOnUse"><stop stop-color="#87D6F4"/><stop offset="1" stop-color="#3ABEEF"/></linearGradient><linearGradient id="e" x1="134.932" y1="493.443" x2="467.905" y2="354.655" gradientUnits="userSpaceOnUse"><stop stop-color="#CDCBF7"/><stop offset=".486" stop-color="#D8D0F5"/><stop offset="1" stop-color="#E7D7F7"/></linearGradient><linearGradient id="f" x1="492.718" y1="348.913" x2="132.094" y2="348.913" gradientUnits="userSpaceOnUse"><stop stop-color="#F2F2FF"/><stop offset=".486" stop-color="#FAFAFE"/><stop offset="1" stop-color="#E8E8FF"/></linearGradient><linearGradient id="g" x1="211.027" y1="262.238" x2="211.027" y2="405.985" gradientUnits="userSpaceOnUse"><stop stop-color="#8C6FDC"/><stop offset="1" stop-color="#8C6EDD"/></linearGradient><linearGradient id="h" x1="501.574" y1="205.389" x2="268.977" y2="205.389" gradientUnits="userSpaceOnUse"><stop stop-color="#F2F2FF"/><stop offset=".486" stop-color="#FAFAFE"/><stop offset="1" stop-color="#E8E8FF"/></linearGradient><linearGradient id="i" x1="276.969" y1="47.616" x2="276.969" y2="354.079" gradientUnits="userSpaceOnUse"><stop stop-color="#89ADF3"/><stop offset="1" stop-color="#7755CE"/></linearGradient><linearGradient id="j" x1="274.819" y1="411.506" x2="521.325" y2="367.976" gradientUnits="userSpaceOnUse"><stop stop-color="#CDCBF7"/><stop offset=".486" stop-color="#D8D0F5"/><stop offset="1" stop-color="#E7D7F7"/></linearGradient><linearGradient id="k" x1="219" y1="64.869" x2="219" y2="382.002" gradientUnits="userSpaceOnUse"><stop stop-color="#F1EDFF"/><stop offset="1" stop-color="#D9CAFF"/></linearGradient><linearGradient id="l" x1="219" y1="64.869" x2="219" y2="382.002" gradientUnits="userSpaceOnUse"><stop stop-color="#EAEAFF"/><stop offset="1" stop-color="#8C6EDD"/></linearGradient><linearGradient id="n" x1="347.387" y1="187.18" x2="397.399" y2="187.18" gradientUnits="userSpaceOnUse"><stop stop-color="#86A0FF"/><stop offset="1" stop-color="#D973F5"/></linearGradient><linearGradient id="o" x1="350.621" y1="292.027" x2="400.633" y2="292.027" gradientUnits="userSpaceOnUse"><stop stop-color="#80D9FB"/><stop offset="1" stop-color="#6AB0F7"/></linearGradient><linearGradient id="p" x1="370.215" y1="255.444" x2="420.227" y2="255.444" gradientUnits="userSpaceOnUse"><stop stop-color="#87C17C"/><stop offset="1" stop-color="#9BDFAD"/></linearGradient><linearGradient id="q" x1="341.68" y1="195.525" x2="349.037" y2="195.525" gradientUnits="userSpaceOnUse"><stop stop-color="#738BE1"/><stop offset="1" stop-color="#AB50C4"/></linearGradient><linearGradient id="r" x1="345.363" y1="275.173" x2="352.72" y2="275.173" gradientUnits="userSpaceOnUse"><stop stop-color="#80D9FB"/><stop offset="1" stop-color="#6AB0F7"/></linearGradient><linearGradient id="s" x1="361.398" y1="250.063" x2="368.756" y2="250.063" gradientUnits="userSpaceOnUse"><stop stop-color="#5EA551"/><stop offset="1" stop-color="#84E79E"/></linearGradient><linearGradient id="t" x1="255.465" y1="131.074" x2="305.477" y2="131.074" gradientUnits="userSpaceOnUse"><stop stop-color="#FF7848"/><stop offset="1" stop-color="#FFC25E"/></linearGradient><linearGradient id="u" x1="250.524" y1="230.93" x2="300.535" y2="230.93" gradientUnits="userSpaceOnUse"><stop stop-color="#8788FF"/><stop offset="1" stop-color="#81ACFA"/></linearGradient><linearGradient id="v" x1="231.207" y1="170.594" x2="281.219" y2="170.594" gradientUnits="userSpaceOnUse"><stop stop-color="#FF92A1"/><stop offset="1" stop-color="#F577B5"/></linearGradient><linearGradient id="w" x1="303.984" y1="172.513" x2="311.341" y2="172.513" gradientUnits="userSpaceOnUse"><stop stop-color="#DD4C19"/><stop offset="1" stop-color="#E79E25"/></linearGradient><linearGradient id="b" x1="486.626" y1="250.835" x2="343.697" y2="225.913" gradientUnits="userSpaceOnUse"><stop stop-color="#CDCBF7"/><stop offset=".486" stop-color="#D8D0F5"/><stop offset="1" stop-color="#E7D7F7"/></linearGradient><linearGradient id="y" x1="283.113" y1="202.279" x2="290.47" y2="202.279" gradientUnits="userSpaceOnUse"><stop stop-color="#DD6D7D"/><stop offset="1" stop-color="#D65695"/></linearGradient><linearGradient id="z" x1="298.106" y1="208.886" x2="302.155" y2="208.886" gradientUnits="userSpaceOnUse"><stop stop-color="#DD6D7D"/><stop offset="1" stop-color="#D65695"/></linearGradient><linearGradient id="A" x1="301.652" y1="236.033" x2="325.776" y2="236.033" gradientUnits="userSpaceOnUse"><stop stop-color="#4142C1"/><stop offset="1" stop-color="#5782CF"/></linearGradient><linearGradient id="B" x1="302.305" y1="187.194" x2="325.775" y2="187.194" gradientUnits="userSpaceOnUse"><stop stop-color="#DD4C19"/><stop offset="1" stop-color="#E79E25"/></linearGradient><linearGradient id="C" x1="350.226" y1="240.697" x2="354.276" y2="240.697" gradientUnits="userSpaceOnUse"><stop stop-color="#5EA551"/><stop offset="1" stop-color="#84E79E"/></linearGradient><linearGradient id="D" x1="326.606" y1="251.263" x2="350.729" y2="251.263" gradientUnits="userSpaceOnUse"><stop stop-color="#80D9FB"/><stop offset="1" stop-color="#6AB0F7"/></linearGradient><linearGradient id="E" x1="326.606" y1="202.025" x2="350.076" y2="202.025" gradientUnits="userSpaceOnUse"><stop stop-color="#738BE1"/><stop offset="1" stop-color="#AB50C4"/></linearGradient><linearGradient id="F" x1="145.872" y1="302.76" x2="29.066" y2="302.76" gradientUnits="userSpaceOnUse"><stop stop-color="#AD97E5"/><stop offset=".556" stop-color="#DBDBFF"/><stop offset=".698" stop-color="#D0D3F6"/><stop offset="1" stop-color="#B2B1FE"/></linearGradient><linearGradient id="G" x1="3.322" y1="262.175" x2="152" y2="262.175" gradientUnits="userSpaceOnUse"><stop stop-color="#F2F2FF"/><stop offset=".486" stop-color="#FAFAFE"/><stop offset="1" stop-color="#E8E8FF"/></linearGradient><linearGradient id="H" x1="137.234" y1="226.104" x2="137.234" y2="296.34" gradientUnits="userSpaceOnUse"><stop stop-color="#B9A3F4"/><stop offset="1" stop-color="#AA8EF5"/></linearGradient><linearGradient id="I" x1="137.236" y1="244.733" x2="14.779" y2="244.733" gradientUnits="userSpaceOnUse"><stop stop-color="#9C5FFF"/><stop offset="1" stop-color="#5121B5"/></linearGradient><linearGradient id="J" x1="152" y1="265.847" x2="152" y2="312.698" gradientUnits="userSpaceOnUse"><stop stop-color="#8C6FDC"/><stop offset="1" stop-color="#8C6EDD"/></linearGradient><linearGradient id="K" x1="123.852" y1="233.6" x2="123.852" y2="288.694" gradientUnits="userSpaceOnUse"><stop stop-color="#8C6FDC"/><stop offset="1" stop-color="#8C6EDD"/></linearGradient><linearGradient id="L" x1="145.872" y1="257.124" x2="29.066" y2="257.124" gradientUnits="userSpaceOnUse"><stop stop-color="#AD97E5"/><stop offset=".556" stop-color="#DBDBFF"/><stop offset=".698" stop-color="#D0D3F6"/><stop offset="1" stop-color="#B2B1FE"/></linearGradient><linearGradient id="M" x1="3.322" y1="216.539" x2="152" y2="216.539" gradientUnits="userSpaceOnUse"><stop stop-color="#F2F2FF"/><stop offset=".486" stop-color="#FAFAFE"/><stop offset="1" stop-color="#E8E8FF"/></linearGradient><linearGradient id="N" x1="137.227" y1="180.399" x2="137.227" y2="250.634" gradientUnits="userSpaceOnUse"><stop stop-color="#8C6FDC"/><stop offset="1" stop-color="#8C6EDD"/></linearGradient><linearGradient id="O" x1="137.236" y1="199.097" x2="14.777" y2="199.097" gradientUnits="userSpaceOnUse"><stop stop-color="#9C5FFF"/><stop offset="1" stop-color="#5121B5"/></linearGradient><linearGradient id="P" x1="152" y1="220.212" x2="152" y2="267.064" gradientUnits="userSpaceOnUse"><stop stop-color="#8C6FDC"/><stop offset="1" stop-color="#8C6EDD"/></linearGradient><linearGradient id="Q" x1="76.047" y1="211.6" x2="88.635" y2="211.6" gradientUnits="userSpaceOnUse"><stop stop-color="#7B52E3"/><stop offset="1" stop-color="#8961F9"/></linearGradient><linearGradient id="R" x1="60.288" y1="194.184" x2="112.912" y2="194.184" gradientUnits="userSpaceOnUse"><stop stop-color="#B196FF"/><stop offset="1" stop-color="#9B76FA"/></linearGradient><linearGradient id="S" x1="45.152" y1="184.973" x2="105.241" y2="184.973" gradientUnits="userSpaceOnUse"><stop stop-color="#7B52E3"/><stop offset="1" stop-color="#8961F9"/></linearGradient></defs></svg>